<?xml version="1.0" encoding="UTF-8"?>
<svg version="1.1" xmlns="http://www.w3.org/2000/svg" width="512" height="512">
<path d="M0 0 C9.16878285 6.5491306 15.2041191 15.53226118 17.625 26.5625 C19.47956565 39.34639911 16.85100146 50.91480987 9.5 61.5625 C3.89601534 68.4564044 -3.35034705 73.39092151 -11.75 76.25 C-12.41 76.25 -13.07 76.25 -13.75 76.25 C-13.75 142.58 -13.75 208.91 -13.75 277.25 C-1.87 277.25 10.01 277.25 22.25 277.25 C22.21519531 272.10792969 22.18039062 266.96585937 22.14453125 261.66796875 C22.12918494 258.39126454 22.11474185 255.11460525 22.10351562 251.83789062 C22.08565019 246.6480986 22.0646197 241.45846684 22.02368164 236.26879883 C21.99085054 232.08016019 21.97309744 227.89169365 21.96536827 223.70293617 C21.95986705 222.11270759 21.94912569 220.52248738 21.93280983 218.93233299 C21.77882337 203.28858437 24.2211617 190.07175963 35.09765625 178.171875 C43.87894387 170.33087045 53.66046568 166.90426958 65.24609375 167.0546875 C66.07963882 167.0575174 66.9131839 167.06034729 67.77198792 167.06326294 C70.4106436 167.07437711 73.04894848 167.09946485 75.6875 167.125 C77.48632319 167.13504115 79.28515175 167.14416501 81.08398438 167.15234375 C85.47278955 167.17428765 89.86133548 167.20875613 94.25 167.25 C94.39550293 166.30688965 94.54100586 165.3637793 94.69091797 164.39208984 C96.22987719 155.74300463 102.6299828 147.63648027 109.60546875 142.5234375 C112.10032304 140.95303309 114.61388122 139.56805939 117.25 138.25 C118.24386719 137.73759766 118.24386719 137.73759766 119.2578125 137.21484375 C128.31543236 133.39643538 141.11445185 133.77438856 150.3125 136.875 C162.3885798 142.16406405 170.08535901 149.63659373 175.3046875 161.734375 C179.06671188 171.74571262 178.79363901 185.07781023 174.5078125 194.86328125 C168.3089029 206.62580847 160.77363646 213.54391301 148.25 218.25 C136.37475243 221.63187388 123.47667899 219.74211227 112.83203125 213.9296875 C103.50888944 208.21399252 97.85833012 200.54288637 94.25 190.25 C94.25 189.26 94.25 188.27 94.25 187.25 C90.28438959 187.34453825 86.3192741 187.45083464 82.35424805 187.56738281 C80.35286271 187.62386098 78.35123142 187.67139768 76.34960938 187.71875 C61.58928153 187.97681893 61.58928153 187.97681893 49.25 195.25 C44.96099932 201.0642684 44.13244421 206.15020962 44.04467773 213.22167969 C44.03477814 213.9147673 44.02487854 214.60785492 44.01467896 215.32194519 C43.98317581 217.60522078 43.95835098 219.88851714 43.93359375 222.171875 C43.91301455 223.758001 43.89201782 225.34412164 43.87062073 226.93023682 C43.81549979 231.09930061 43.76604663 235.26841308 43.71777344 239.43756104 C43.66748544 243.69409503 43.61183751 247.95055858 43.55664062 252.20703125 C43.44918113 260.55462789 43.3477092 268.90228357 43.25 277.25 C45.22292274 277.23667633 45.22292274 277.23667633 47.23570251 277.2230835 C59.69493341 277.14162511 72.15410952 277.0818568 84.61354733 277.04275131 C91.01746244 277.02197024 97.42116077 276.99382734 103.82495117 276.94824219 C110.01713218 276.9044445 116.20910605 276.88079181 122.40143013 276.87049103 C124.75146299 276.86316013 127.10148588 276.84884662 129.45142937 276.82707977 C159.07429025 276.56386734 182.33780229 283.33381128 204.25 304.25 C205.17039062 305.05824219 205.17039062 305.05824219 206.109375 305.8828125 C220.20422722 318.7492143 230.30283472 341.29451094 231.42700195 360.23168945 C231.82465857 380.55336862 230.91952801 397.03204869 221.25 415.25 C220.48042969 416.75820313 220.48042969 416.75820313 219.6953125 418.296875 C215.29305606 426.42735819 209.73255824 432.75843821 203.25 439.25 C202.445625 440.06597656 201.64125 440.88195312 200.8125 441.72265625 C180.58258845 461.12074578 155.27581758 465.71498122 128.35131836 465.65405273 C126.06182524 465.65976402 123.77233497 465.6667312 121.48284912 465.67485046 C115.30374593 465.69270206 109.12478534 465.69162993 102.94566417 465.68590808 C97.78091053 465.68280811 92.61618397 465.68891686 87.4514342 465.69494683 C74.57978462 465.70976013 61.70822409 465.70620034 48.83657611 465.69408352 C37.66338951 465.68412776 26.49036796 465.69713976 15.31720679 465.72101771 C3.8233605 465.74539508 -7.67039008 465.75462141 -19.16426367 465.74836498 C-25.60909885 465.74499144 -32.05379726 465.74743848 -38.49861336 465.76461601 C-44.54886311 465.78004142 -50.59879558 465.77617852 -56.64903259 465.75731087 C-58.87066015 465.75361443 -61.09231102 465.75676397 -63.31391716 465.76719666 C-66.34209893 465.78033413 -69.36921867 465.76892357 -72.39735413 465.75120544 C-73.2798312 465.76081045 -74.16230826 465.77041546 -75.07152706 465.78031152 C-79.16579841 465.73088384 -81.23122865 465.57724479 -84.77204037 463.34367466 C-87.84361303 460.09240819 -88.08364223 457.76314481 -88.04296875 453.2890625 C-87.58745033 450.11865433 -85.99684343 448.4307598 -83.75 446.25 C-80.4785946 444.6142973 -76.86069002 445.1035856 -73.2651062 445.10523987 C-71.93190423 445.0999496 -71.93190423 445.0999496 -70.57176888 445.09455246 C-67.57502175 445.08382566 -64.57830635 445.08017744 -61.58154297 445.07641602 C-59.43974675 445.07011331 -57.29795185 445.06334782 -55.15615845 445.05615234 C-50.53226876 445.04145554 -45.90838422 445.0297412 -41.28448105 445.02020454 C-33.96242651 445.0047649 -26.64041539 444.9808117 -19.31838989 444.95530701 C1.50727591 444.88408372 22.33296736 444.82449101 43.15869141 444.77319336 C54.65204814 444.74480736 66.14536246 444.70937422 77.63867462 444.66653961 C84.90492545 444.6398819 92.17112825 444.6219054 99.43741822 444.61050236 C103.98115818 444.60131616 108.52484046 444.58392519 113.0685463 444.56432343 C115.16136763 444.55690719 117.25420384 444.55277048 119.34703827 444.55232811 C145.86502094 444.54220539 169.49894722 441.80416869 189.421875 422.2734375 C196.8755215 414.56189685 202.53724239 405.29628529 206.25 395.25 C206.56839844 394.42242187 206.88679688 393.59484375 207.21484375 392.7421875 C212.90725251 374.74683077 209.99342936 354.66043718 202 338 C192.99210064 320.88307871 178.49214944 308.54585258 160.375 301.875 C143.6807141 297.11086833 126.25757609 297.9591445 109.06648016 297.98855066 C105.11003797 297.99311739 101.15361277 297.98607069 97.19717407 297.98059082 C89.46693861 297.97173979 81.73674219 297.97359959 74.00650525 297.9794161 C67.71888235 297.98394958 61.43127031 297.98453824 55.14364624 297.98236847 C54.24566588 297.982062 53.34768552 297.98175554 52.42249364 297.98143978 C50.59774788 297.98080028 48.77300212 297.98015185 46.94825637 297.9794946 C29.87396918 297.97380388 12.79970354 297.98032941 -4.27458012 297.99109533 C-18.89628034 298.0000297 -33.51794879 297.9984773 -48.13964844 297.98925781 C-65.15662629 297.9785329 -82.1735853 297.97435308 -99.19056606 297.98048234 C-101.00825945 297.98111938 -102.82595284 297.98174812 -104.64364624 297.98236847 C-105.98483937 297.9828313 -105.98483937 297.9828313 -107.3531273 297.98330347 C-113.62658698 297.98502376 -119.90003462 297.98212974 -126.17349243 297.97740936 C-133.82819051 297.97177579 -141.48284762 297.97336872 -149.13754106 297.98397085 C-153.03627032 297.98919443 -156.9349315 297.9913415 -160.83366013 297.98467255 C-190.00588148 297.9391469 -216.72073678 298.46246902 -238.921875 320.2265625 C-246.3755215 327.93810315 -252.03724239 337.20371471 -255.75 347.25 C-256.06839844 348.07757813 -256.38679688 348.90515625 -256.71484375 349.7578125 C-262.40725251 367.75316923 -259.49342936 387.83956282 -251.5 404.5 C-242.49210064 421.61692129 -227.99214944 433.95414742 -209.875 440.625 C-200.53484035 443.40378931 -191.03751922 444.21210897 -181.34375 444.4140625 C-180.22508545 444.44089111 -179.1064209 444.46771973 -177.95385742 444.49536133 C-175.72519436 444.53948215 -173.49594275 444.56084079 -171.2668457 444.55737305 C-163.47648935 444.69686727 -163.47648935 444.69686727 -159.57421875 447.66796875 C-156.86936839 451.49646145 -156.29625091 453.53100945 -156.75 458.25 C-159.90789474 463.82894737 -159.90789474 463.82894737 -162.75 465.25 C-165.39544916 465.38589957 -168.01308291 465.46280575 -170.66015625 465.48828125 C-171.46045761 465.496353 -172.26075897 465.50442474 -173.08531189 465.51274109 C-174.79098339 465.52660077 -176.49668284 465.53731446 -178.20239258 465.54516602 C-179.91569368 465.55654422 -181.62896351 465.57676309 -183.34204102 465.60668945 C-200.53379998 465.90676989 -215.37432457 463.41093542 -230.75 455.25 C-231.75546875 454.73695313 -232.7609375 454.22390625 -233.796875 453.6953125 C-241.92735584 449.29305733 -248.25841113 443.73257277 -254.75 437.25 C-255.554375 436.45722656 -256.35875 435.66445313 -257.1875 434.84765625 C-276.05923445 415.1568361 -281.44004669 390.69418266 -281.0625 364.20703125 C-280.3051318 340.76964127 -269.7495686 321.01145282 -253.75 304.25 C-253.21117187 303.63640625 -252.67234375 303.0228125 -252.1171875 302.390625 C-239.67801484 288.76379264 -218.84848951 279.5915842 -200.75 277.25 C-197.21781249 277.11229501 -193.68925055 277.1236169 -190.15478516 277.13647461 C-189.10052338 277.13632858 -188.0462616 277.13618256 -186.96005249 277.1360321 C-183.486368 277.13672701 -180.01273759 277.14449965 -176.5390625 277.15234375 C-174.12625152 277.15420943 -171.71344016 277.15563263 -169.30062866 277.15663147 C-162.95818023 277.16044483 -156.61575479 277.17026505 -150.27331543 277.18133545 C-143.79809887 277.19157495 -137.32287858 277.19613453 -130.84765625 277.20117188 C-118.14842771 277.21188837 -105.44921508 277.22875769 -92.75 277.25 C-92.7638298 259.69034495 -92.80617119 242.13101833 -92.88209057 224.57152748 C-92.91668584 216.41760924 -92.94208889 208.26385909 -92.94555664 200.10986328 C-92.94860417 192.9995593 -92.96920009 185.88955512 -93.01052457 178.77936685 C-93.03178524 175.01743828 -93.04449127 171.25593515 -93.03615379 167.49394608 C-93.02856912 163.9461831 -93.04461249 160.39927901 -93.07806015 156.85167313 C-93.09011415 154.9427944 -93.07776197 153.03380925 -93.06443787 151.12493896 C-93.1726288 142.9291553 -94.46232661 135.60094238 -100.42642498 129.54883766 C-108.4276589 122.94457423 -119.58760311 123.99566633 -129.3125 124.125 C-130.60736328 124.13402344 -131.90222656 124.14304688 -133.23632812 124.15234375 C-136.40774771 124.17574906 -139.57877373 124.20853772 -142.75 124.25 C-143.00031982 124.91676758 -143.25063965 125.58353516 -143.50854492 126.27050781 C-148.03882413 138.01908179 -154.94637008 146.72654723 -166.5 152.0625 C-176.62435162 156.43180817 -189.20652817 157.25843152 -199.8125 153.6875 C-211.89822692 148.29943599 -220.41325743 140.00950185 -225.25 127.5625 C-228.55523364 116.18600387 -227.93350403 103.95194216 -222.75 93.25 C-220.97781715 90.34167801 -219.01840303 87.78562328 -216.75 85.25 C-215.986875 84.38375 -215.22375 83.5175 -214.4375 82.625 C-205.41096232 74.64805973 -196.40641035 70.65735515 -184.3125 70.8125 C-183.47992676 70.82007324 -182.64735352 70.82764648 -181.78955078 70.83544922 C-175.42088215 71.00609416 -170.29665473 71.9728939 -164.75 75.25 C-163.97527344 75.68570313 -163.20054687 76.12140625 -162.40234375 76.5703125 C-152.47621251 82.63536097 -146.40689107 91.2793268 -142.75 102.25 C-141.68676514 102.2593457 -140.62353027 102.26869141 -139.52807617 102.27832031 C-135.53369246 102.31858898 -131.54004952 102.38444418 -127.54614258 102.45751953 C-125.8268393 102.48551754 -124.10741237 102.50683592 -122.38793945 102.52099609 C-107.52274781 102.65067209 -95.12290514 104.48179842 -83.8125 115.0625 C-73.47011131 126.11815687 -71.43964533 138.20983941 -71.52294922 152.82617188 C-71.52351421 154.18694043 -71.52319506 155.54770959 -71.52206421 156.90847778 C-71.52149312 160.58149481 -71.53320765 164.25437977 -71.54721212 167.92736626 C-71.55976039 171.77371415 -71.5608932 175.62006546 -71.56326294 179.46643066 C-71.56946571 186.74063295 -71.58586017 194.01477473 -71.60596192 201.28895044 C-71.62835846 209.5743386 -71.63932377 217.85972973 -71.64935279 226.14514065 C-71.67022753 243.18013471 -71.70688864 260.21504549 -71.75 277.25 C-59.54 277.25 -47.33 277.25 -34.75 277.25 C-34.75 210.92 -34.75 144.59 -34.75 76.25 C-37.72 75.755 -37.72 75.755 -40.75 75.25 C-52.49049902 69.59451571 -60.64165446 61.25468722 -65.6875 49.1875 C-68.77242593 38.48666318 -68.10459401 25.00625179 -62.75 15.25 C-56.62781888 4.91000285 -48.51836031 -2.31038177 -37 -6.08984375 C-23.73822275 -8.78364225 -11.55592819 -7.08453889 0 0 Z M-40.5 21.1875 C-45.30239972 26.80111589 -46.26849963 30.83864421 -46.125 38.2109375 C-45.24633355 45.33179687 -40.72001169 49.7025016 -35.3984375 54.12109375 C-30.57017619 57.42765185 -24.32420546 56.73871687 -18.75 56.25 C-12.84745117 54.7131838 -9.30896273 51.29365204 -5.94140625 46.3203125 C-2.98514489 41.18320259 -2.24121997 36.37660373 -3.08203125 30.58984375 C-4.67702985 25.00268493 -8.15529755 20.0616752 -12.9375 16.75 C-22.68407726 11.55182546 -33.17693884 13.14561075 -40.5 21.1875 Z M-201.625 100.25 C-205.78457615 106.1223428 -206.60813918 111.13504853 -205.75 118.25 C-203.69227784 125.23639799 -198.96813016 129.66240755 -192.890625 133.390625 C-187.84187882 135.41749391 -181.52960778 135.05067262 -176.36328125 133.5625 C-170.38258683 130.82846826 -166.56577704 126.48486733 -163.875 120.5 C-162.01761675 114.90650102 -162.40785854 109.4278804 -164.6953125 104.01171875 C-167.97002992 98.25385468 -172.39040566 94.36986478 -178.75 92.25 C-188.63185251 91.2252153 -194.96323375 92.79654559 -201.625 100.25 Z M119.46484375 162.19140625 C114.17143419 168.98649228 113.50262877 174.72563534 114.25 183.25 C115.99668927 189.95862184 120.42731898 193.79465131 126.25 197.25 C132.32543566 199.27514522 139.70235531 199.35046489 145.625 196.75 C150.76838337 193.7541671 154.38538445 188.84384665 156.25 183.25 C156.91106953 175.93488638 157.01839707 169.18077642 152.25 163.25 C145.90797679 157.4184012 140.89438426 155.86675123 132.32421875 155.98046875 C126.85729565 156.45977967 123.1843017 158.14639399 119.46484375 162.19140625 Z " fill="#000000" transform="translate(280.75,26.75)"/>
<path d="M0 0 C10.24816326 6.36401975 15.88111199 14.26833596 19.6796875 25.6640625 C20.6650206 39.38834499 19.62754068 49.99728424 10.6171875 61.0390625 C3.7505904 68.20571258 -5.45040845 72.69629501 -15.375 73.00805664 C-28.28101184 73.17599348 -37.56868819 70.42980962 -47.12109375 61.27734375 C-55.52770942 51.28795497 -57.15073512 40.47868651 -56.53369141 27.90673828 C-55.60022322 18.09570994 -49.69346538 9.86897292 -42.3203125 3.6640625 C-29.50400393 -4.15308968 -13.91173701 -6.8980635 0 0 Z M-32.6328125 24.2265625 C-35.98466605 29.06812873 -35.80017145 33.97684527 -35.3203125 39.6640625 C-33.52677415 44.94503654 -30.71032048 47.46301501 -26.3203125 50.6640625 C-21.47916635 52.27777788 -16.13419867 52.64095883 -11.25 50.9453125 C-6.33042979 48.30450425 -3.08161006 44.94795519 -1.3203125 39.6640625 C-0.78609146 33.69516969 -0.78724528 28.72812552 -4.3203125 23.6640625 C-8.71344438 19.24692443 -12.41914182 17.51485398 -18.6328125 17.3515625 C-25.13849585 17.42022407 -28.29390263 19.41858129 -32.6328125 24.2265625 Z " fill="#000000" transform="translate(224.3203125,363.3359375)"/>
<path d="M0 0 C10.24816326 6.36401975 15.88111199 14.26833596 19.6796875 25.6640625 C20.6650206 39.38834499 19.62754068 49.99728424 10.6171875 61.0390625 C3.7505904 68.20571258 -5.45040845 72.69629501 -15.375 73.00805664 C-28.28101184 73.17599348 -37.56868819 70.42980962 -47.12109375 61.27734375 C-55.52770942 51.28795497 -57.15073512 40.47868651 -56.53369141 27.90673828 C-55.60022322 18.09570994 -49.69346538 9.86897292 -42.3203125 3.6640625 C-29.50400393 -4.15308968 -13.91173701 -6.8980635 0 0 Z M-32.6328125 24.2265625 C-35.98466605 29.06812873 -35.80017145 33.97684527 -35.3203125 39.6640625 C-33.52677415 44.94503654 -30.71032048 47.46301501 -26.3203125 50.6640625 C-21.47916635 52.27777788 -16.13419867 52.64095883 -11.25 50.9453125 C-6.33042979 48.30450425 -3.08161006 44.94795519 -1.3203125 39.6640625 C-0.78609146 33.69516969 -0.78724528 28.72812552 -4.3203125 23.6640625 C-8.71344438 19.24692443 -12.41914182 17.51485398 -18.6328125 17.3515625 C-25.13849585 17.42022407 -28.29390263 19.41858129 -32.6328125 24.2265625 Z " fill="#000000" transform="translate(112.3203125,363.3359375)"/>
<path d="M0 0 C0.825 -0.01289063 1.65 -0.02578125 2.5 -0.0390625 C5.23969932 0.68867013 6.96891003 1.67642285 8.93035889 3.73428345 C11.42359823 8.14137741 10.70460553 13.70916769 10.6640625 18.625 C10.66884613 19.8934375 10.67362976 21.161875 10.67855835 22.46875 C10.68195934 25.14930824 10.67527278 27.82758142 10.65185547 30.5078125 C10.62336542 33.93475855 10.63977701 37.35974681 10.66971779 40.78662109 C10.69218044 44.06614993 10.67643061 47.34544556 10.6640625 50.625 C10.67418365 51.8521875 10.68430481 53.079375 10.69473267 54.34375 C10.56451585 63.80123534 10.56451585 63.80123534 7.61474609 66.89599609 C4.79310136 68.76181197 3.3543042 69.302411 0 69.25 C-1.2375 69.26933594 -1.2375 69.26933594 -2.5 69.2890625 C-5.23969932 68.56132987 -6.96891003 67.57357715 -8.93035889 65.51571655 C-11.42359823 61.10862259 -10.70460553 55.54083231 -10.6640625 50.625 C-10.66884613 49.3565625 -10.67362976 48.088125 -10.67855835 46.78125 C-10.68195934 44.10069176 -10.67527278 41.42241858 -10.65185547 38.7421875 C-10.62336542 35.31524145 -10.63977701 31.89025319 -10.66971779 28.46337891 C-10.69218044 25.18385007 -10.67643061 21.90455444 -10.6640625 18.625 C-10.67418365 17.3978125 -10.68430481 16.170625 -10.69473267 14.90625 C-10.56451585 5.44876466 -10.56451585 5.44876466 -7.61474609 2.35400391 C-4.79310136 0.48818803 -3.3543042 -0.052411 0 0 Z " fill="#000000" transform="translate(448,363.375)"/>
<path d="M0 0 C0.825 -0.01289063 1.65 -0.02578125 2.5 -0.0390625 C5.23969932 0.68867013 6.96891003 1.67642285 8.93035889 3.73428345 C11.42359823 8.14137741 10.70460553 13.70916769 10.6640625 18.625 C10.66884613 19.8934375 10.67362976 21.161875 10.67855835 22.46875 C10.68195934 25.14930824 10.67527278 27.82758142 10.65185547 30.5078125 C10.62336542 33.93475855 10.63977701 37.35974681 10.66971779 40.78662109 C10.69218044 44.06614993 10.67643061 47.34544556 10.6640625 50.625 C10.67418365 51.8521875 10.68430481 53.079375 10.69473267 54.34375 C10.56451585 63.80123534 10.56451585 63.80123534 7.61474609 66.89599609 C4.79310136 68.76181197 3.3543042 69.302411 0 69.25 C-1.2375 69.26933594 -1.2375 69.26933594 -2.5 69.2890625 C-5.23969932 68.56132987 -6.96891003 67.57357715 -8.93035889 65.51571655 C-11.42359823 61.10862259 -10.70460553 55.54083231 -10.6640625 50.625 C-10.66884613 49.3565625 -10.67362976 48.088125 -10.67855835 46.78125 C-10.68195934 44.10069176 -10.67527278 41.42241858 -10.65185547 38.7421875 C-10.62336542 35.31524145 -10.63977701 31.89025319 -10.66971779 28.46337891 C-10.69218044 25.18385007 -10.67643061 21.90455444 -10.6640625 18.625 C-10.67418365 17.3978125 -10.68430481 16.170625 -10.69473267 14.90625 C-10.56451585 5.44876466 -10.56451585 5.44876466 -7.61474609 2.35400391 C-4.79310136 0.48818803 -3.3543042 -0.052411 0 0 Z " fill="#000000" transform="translate(408,363.375)"/>
<path d="M0 0 C0.825 -0.01289063 1.65 -0.02578125 2.5 -0.0390625 C5.23969932 0.68867013 6.96891003 1.67642285 8.93035889 3.73428345 C11.42359823 8.14137741 10.70460553 13.70916769 10.6640625 18.625 C10.66884613 19.8934375 10.67362976 21.161875 10.67855835 22.46875 C10.68195934 25.14930824 10.67527278 27.82758142 10.65185547 30.5078125 C10.62336542 33.93475855 10.63977701 37.35974681 10.66971779 40.78662109 C10.69218044 44.06614993 10.67643061 47.34544556 10.6640625 50.625 C10.67418365 51.8521875 10.68430481 53.079375 10.69473267 54.34375 C10.56451585 63.80123534 10.56451585 63.80123534 7.61474609 66.89599609 C4.79310136 68.76181197 3.3543042 69.302411 0 69.25 C-1.2375 69.26933594 -1.2375 69.26933594 -2.5 69.2890625 C-5.23969932 68.56132987 -6.96891003 67.57357715 -8.93035889 65.51571655 C-11.42359823 61.10862259 -10.70460553 55.54083231 -10.6640625 50.625 C-10.66884613 49.3565625 -10.67362976 48.088125 -10.67855835 46.78125 C-10.68195934 44.10069176 -10.67527278 41.42241858 -10.65185547 38.7421875 C-10.62336542 35.31524145 -10.63977701 31.89025319 -10.66971779 28.46337891 C-10.69218044 25.18385007 -10.67643061 21.90455444 -10.6640625 18.625 C-10.67418365 17.3978125 -10.68430481 16.170625 -10.69473267 14.90625 C-10.56451585 5.44876466 -10.56451585 5.44876466 -7.61474609 2.35400391 C-4.79310136 0.48818803 -3.3543042 -0.052411 0 0 Z " fill="#000000" transform="translate(368,363.375)"/>
<path d="M0 0 C0.825 -0.01289063 1.65 -0.02578125 2.5 -0.0390625 C5.23969932 0.68867013 6.96891003 1.67642285 8.93035889 3.73428345 C11.42359823 8.14137741 10.70460553 13.70916769 10.6640625 18.625 C10.66884613 19.8934375 10.67362976 21.161875 10.67855835 22.46875 C10.68195934 25.14930824 10.67527278 27.82758142 10.65185547 30.5078125 C10.62336542 33.93475855 10.63977701 37.35974681 10.66971779 40.78662109 C10.69218044 44.06614993 10.67643061 47.34544556 10.6640625 50.625 C10.67418365 51.8521875 10.68430481 53.079375 10.69473267 54.34375 C10.56451585 63.80123534 10.56451585 63.80123534 7.61474609 66.89599609 C4.79310136 68.76181197 3.3543042 69.302411 0 69.25 C-1.2375 69.26933594 -1.2375 69.26933594 -2.5 69.2890625 C-5.23969932 68.56132987 -6.96891003 67.57357715 -8.93035889 65.51571655 C-11.42359823 61.10862259 -10.70460553 55.54083231 -10.6640625 50.625 C-10.66884613 49.3565625 -10.67362976 48.088125 -10.67855835 46.78125 C-10.68195934 44.10069176 -10.67527278 41.42241858 -10.65185547 38.7421875 C-10.62336542 35.31524145 -10.63977701 31.89025319 -10.66971779 28.46337891 C-10.69218044 25.18385007 -10.67643061 21.90455444 -10.6640625 18.625 C-10.67418365 17.3978125 -10.68430481 16.170625 -10.69473267 14.90625 C-10.56451585 5.44876466 -10.56451585 5.44876466 -7.61474609 2.35400391 C-4.79310136 0.48818803 -3.3543042 -0.052411 0 0 Z " fill="#000000" transform="translate(328,363.375)"/>
<path d="M0 0 C0.825 -0.01289063 1.65 -0.02578125 2.5 -0.0390625 C5.23969932 0.68867013 6.96891003 1.67642285 8.93035889 3.73428345 C11.42359823 8.14137741 10.70460553 13.70916769 10.6640625 18.625 C10.66884613 19.8934375 10.67362976 21.161875 10.67855835 22.46875 C10.68195934 25.14930824 10.67527278 27.82758142 10.65185547 30.5078125 C10.62336542 33.93475855 10.63977701 37.35974681 10.66971779 40.78662109 C10.69218044 44.06614993 10.67643061 47.34544556 10.6640625 50.625 C10.67418365 51.8521875 10.68430481 53.079375 10.69473267 54.34375 C10.56451585 63.80123534 10.56451585 63.80123534 7.61474609 66.89599609 C4.79310136 68.76181197 3.3543042 69.302411 0 69.25 C-1.2375 69.26933594 -1.2375 69.26933594 -2.5 69.2890625 C-5.23969932 68.56132987 -6.96891003 67.57357715 -8.93035889 65.51571655 C-11.42359823 61.10862259 -10.70460553 55.54083231 -10.6640625 50.625 C-10.66884613 49.3565625 -10.67362976 48.088125 -10.67855835 46.78125 C-10.68195934 44.10069176 -10.67527278 41.42241858 -10.65185547 38.7421875 C-10.62336542 35.31524145 -10.63977701 31.89025319 -10.66971779 28.46337891 C-10.69218044 25.18385007 -10.67643061 21.90455444 -10.6640625 18.625 C-10.67418365 17.3978125 -10.68430481 16.170625 -10.69473267 14.90625 C-10.56451585 5.44876466 -10.56451585 5.44876466 -7.61474609 2.35400391 C-4.79310136 0.48818803 -3.3543042 -0.052411 0 0 Z " fill="#000000" transform="translate(288,363.375)"/>
<path d="M0 0 C2.75569447 2.18159145 4.43588747 3.87177494 6 7 C6.59873168 12.26883876 5.25400021 14.8846468 2 19 C-1.45739557 20.72869779 -5.21975568 20.48966895 -9 20 C-11.87029869 18.20606332 -13.49131638 17.01736724 -15 14 C-15.5811138 6.91041162 -15.5811138 6.91041162 -13.125 3.0625 C-9.24699241 -0.70144855 -5.21240222 -0.82822281 0 0 Z " fill="#000000" transform="translate(163,472)"/>
</svg>
