<?xml version="1.0" encoding="UTF-8"?>
<svg version="1.1" xmlns="http://www.w3.org/2000/svg" width="512" height="512">
<path d="M0 0 C1.0366126 -0.00307895 1.0366126 -0.00307895 2.09416687 -0.0062201 C4.42103265 -0.01189623 6.74783935 -0.0104321 9.07471085 -0.00901413 C10.75538077 -0.01159741 12.43605008 -0.01461047 14.11671853 -0.01801753 C18.74408141 -0.02609508 23.37142879 -0.02787752 27.99879789 -0.028615 C32.98597983 -0.03046423 37.97315369 -0.0380109 42.96033096 -0.04475021 C53.86937315 -0.05833926 64.77841166 -0.0643591 75.6874609 -0.06876087 C82.49715058 -0.07152224 89.30683884 -0.07575939 96.11652756 -0.08026505 C114.96504375 -0.09245829 133.8135588 -0.1027576 152.66207886 -0.10614014 C153.86871127 -0.1063597 155.07534368 -0.10657927 156.31854071 -0.10680549 C157.52808341 -0.10702377 158.73762612 -0.10724204 159.98382163 -0.10746694 C162.43487406 -0.1079104 164.88592649 -0.10835697 167.33697891 -0.10880661 C168.55278925 -0.10902804 169.76859959 -0.10924947 171.02125266 -0.10947761 C190.72558356 -0.11342636 210.42987749 -0.13088248 230.13419411 -0.15416613 C250.35706277 -0.17786995 270.57991287 -0.19034154 290.80279565 -0.19150805 C302.16013492 -0.19242534 313.51742603 -0.19819121 324.87475204 -0.21632767 C334.54504726 -0.23171554 344.21527943 -0.23685686 353.88558456 -0.22858956 C358.82020027 -0.22467846 363.75468895 -0.22563516 368.68928909 -0.23964691 C373.20712166 -0.25235805 377.72473138 -0.25121285 382.24256352 -0.2390562 C383.87649415 -0.23709437 385.51044042 -0.24020003 387.14434907 -0.24890056 C399.11051576 -0.30858327 407.14741434 0.48936996 416.17389297 8.94002151 C421.19517292 14.48517516 423.27739868 20.74057666 423.29248905 28.14034081 C423.2969469 29.15580612 423.30140474 30.17127144 423.30599767 31.21750844 C423.30572113 32.88819852 423.30572113 32.88819852 423.305439 34.59263992 C423.30911568 35.7773157 423.31279237 36.96199148 423.31658047 38.18256652 C423.32569921 41.47209493 423.33031522 44.76157349 423.33296978 48.05110979 C423.3368766 51.59864735 423.34645468 55.14617052 423.35518265 58.69369888 C423.37493653 67.26167208 423.38501196 75.82964644 423.39391044 84.39763671 C423.39829515 88.43393042 423.40366149 92.47022283 423.40889931 96.5065155 C423.4259106 109.92663996 423.44040432 123.34676361 423.44764805 136.7668972 C423.4495579 140.24875896 423.45147824 143.73062072 423.45343399 147.21248245 C423.45391773 148.07786624 423.45440147 148.94325003 423.45489987 149.83485757 C423.46319851 163.85055113 423.48853305 177.86615929 423.52101467 191.88181557 C423.55410138 206.27609016 423.57209827 220.67032138 423.57529229 235.0646342 C423.57745591 243.14460157 423.5861828 251.22444442 423.61175346 259.30437469 C423.63348251 266.18624993 423.64150009 273.06797038 423.63178668 279.94987603 C423.6272483 283.45902545 423.62910077 286.96785569 423.64854813 290.47696114 C423.66623665 294.28768072 423.65917441 298.09759357 423.64601517 301.90831375 C423.66246904 303.55892734 423.66246904 303.55892734 423.67925531 305.24288666 C423.6109339 313.4526396 422.00393078 320.307404 417.04498672 326.97127151 C408.86734523 334.77125994 402.19211843 337.25972957 390.8373909 337.25168228 C390.11033001 337.25253671 389.38326912 337.25339113 388.63417608 337.25427145 C386.20362351 337.2559155 383.77314033 337.2504225 381.34259415 337.24495316 C379.59803646 337.24467103 377.85347866 337.24482952 376.10892105 337.24539566 C371.3758866 337.24568263 366.64287749 337.23980209 361.90984893 337.2328217 C356.96240858 337.22657148 352.01496765 337.22598304 347.06752396 337.2247963 C337.70016152 337.22168791 328.33281075 337.21348114 318.96545345 337.20344681 C308.30048758 337.19227039 297.63552116 337.18677136 286.97055089 337.18175137 C265.03311657 337.17129814 243.09569342 337.15350683 221.15826797 337.13142776 C221.15826797 345.05142776 221.15826797 352.97142776 221.15826797 361.13142776 C223.88076797 361.08502151 226.60326797 361.03861526 229.40826797 360.99080276 C232.06596389 360.95954399 234.72363876 360.93529231 237.38141251 360.9117012 C239.21842091 360.89167403 241.05536627 360.86444394 242.89215469 360.82966995 C245.54351799 360.78075712 248.19403339 360.75837013 250.84576797 360.74080276 C251.65755508 360.72015762 252.46934219 360.69951248 253.30572891 360.67824173 C260.10111592 360.67561031 265.26817233 362.59881782 270.40045547 367.09627151 C270.9392836 367.74724808 271.47811172 368.39822464 272.03326797 369.06892776 C272.58756485 369.7173262 273.14186172 370.36572464 273.71295547 371.03377151 C278.57692464 378.09309974 277.95202472 386.8925652 277.15826797 395.13142776 C275.59801096 401.81683283 270.68234341 406.32526778 265.15826797 410.13142776 C261.58014234 411.80317208 258.76535423 412.38441519 254.82738113 412.3988533 C253.77188568 412.40738327 252.71639023 412.41591324 251.62891006 412.42470169 C250.48126175 412.42379532 249.33361343 412.42288895 248.1511879 412.42195511 C246.32594337 412.43203094 246.32594337 412.43203094 244.46382523 412.44231033 C241.13303538 412.45803904 237.80249492 412.46466455 234.47168517 412.46594191 C232.38793167 412.46736582 230.30420412 412.47163998 228.22045708 412.47693634 C220.94279325 412.49542847 213.66520257 412.50360811 206.38751602 412.50203323 C199.61700182 412.50083253 192.84680676 412.52192272 186.07637328 412.55352056 C180.25282589 412.57972505 174.42938246 412.59039877 168.60577661 412.58912241 C165.13239297 412.58861394 161.659293 412.59423307 158.1859684 412.61547852 C154.30836425 412.63855009 150.43119313 412.62931445 146.55353165 412.61726761 C145.41195602 412.62850662 144.2703804 412.63974564 143.09421158 412.65132523 C135.31366616 412.58997787 129.93000336 411.43662445 123.91608047 406.16658401 C123.37725235 405.51560745 122.83842422 404.86463089 122.28326797 404.19392776 C121.7289711 403.54552933 121.17467422 402.89713089 120.60358047 402.22908401 C115.73961131 395.16975579 116.36451123 386.37029033 117.15826797 378.13142776 C118.71852499 371.4460227 123.63419254 366.93758775 129.15826797 363.13142776 C133.79620206 360.7127791 138.07978619 360.87250298 143.17779922 360.93611526 C144.46565575 360.94036011 144.46565575 360.94036011 145.77952957 360.9446907 C148.51008672 360.95584706 151.24031068 360.98094318 153.97076797 361.00642776 C155.82688301 361.01646344 157.68300322 361.02558827 159.53912735 361.03377151 C164.0790712 361.0540663 168.61829849 361.09322325 173.15826797 361.13142776 C173.15826797 353.21142776 173.15826797 345.29142776 173.15826797 337.13142776 C169.86537292 337.14142052 169.86537292 337.14142052 166.50595474 337.15161514 C145.81818499 337.2129557 125.13042724 337.25758213 104.4425869 337.28686428 C93.80676173 337.30231934 83.17100338 337.32338284 72.5352211 337.35774612 C63.26280893 337.38769014 53.99044517 337.40701266 44.71798599 337.41369325 C39.81034531 337.41759702 34.9028431 337.42674309 29.99524689 337.44861794 C25.37091339 337.46906213 20.74677469 337.47524558 16.12240028 337.47075081 C14.43017962 337.47157247 12.73795207 337.47749069 11.04577065 337.48904419 C-11.09153903 337.63270572 -11.09153903 337.63270572 -18.21673203 330.75642776 C-18.85739609 330.13896683 -19.49806015 329.52150589 -20.15813828 328.88533401 C-28.06280385 320.6505432 -29.28970865 313.24658187 -29.22941208 302.18919754 C-29.23479762 301.00110406 -29.24018315 299.81301059 -29.24573189 298.58891428 C-29.25752634 295.30832894 -29.25595752 292.02807126 -29.24856508 288.74748325 C-29.24382332 285.20272679 -29.25635218 281.65802413 -29.26658249 278.11328506 C-29.28375642 271.17537474 -29.28461339 264.23755504 -29.27936959 257.29962899 C-29.27532385 251.65868701 -29.27677624 246.01777176 -29.28211784 240.37683105 C-29.28286627 239.57317208 -29.28361469 238.76951311 -29.28438579 237.94150084 C-29.28591731 236.30872341 -29.28745566 234.675946 -29.28900076 233.04316859 C-29.30272084 217.73979319 -29.29729168 202.43646894 -29.28581554 187.13309471 C-29.27588479 173.14351155 -29.28882197 159.15406068 -29.31274974 145.16449793 C-29.33715312 130.78816485 -29.34674549 116.41189336 -29.34009701 102.03553998 C-29.3366074 93.96906078 -29.33881973 85.90268329 -29.35634804 77.83621979 C-29.37108557 70.96906321 -29.37168533 64.10207995 -29.35427713 57.23492672 C-29.34577721 53.73386303 -29.34359242 50.23310876 -29.35892868 46.73206139 C-29.37212592 42.93029144 -29.36060039 39.12935935 -29.34293747 35.32762527 C-29.35254248 34.22994469 -29.36214748 33.13226411 -29.37204355 32.00132048 C-29.27684204 22.02316064 -26.5878896 14.1298945 -19.70891953 6.82283401 C-13.69529887 1.37534919 -7.94038303 0.00802372 0 0 Z M-10.31040668 21.59495831 C-12.50962614 26.67387408 -12.39097588 31.23434057 -12.34293747 36.71493912 C-12.34847187 37.88851736 -12.35400626 39.06209561 -12.35970837 40.27123684 C-12.37095435 43.52049262 -12.36429242 46.76913881 -12.34997165 50.01836431 C-12.33885615 53.52556881 -12.35080629 57.03270553 -12.35981369 60.53990555 C-12.37374385 67.40693474 -12.36619191 74.27378 -12.35113811 81.14080042 C-12.33427595 89.13712586 -12.33748849 97.13340549 -12.34123219 105.12974321 C-12.34711026 119.39621105 -12.33294078 133.66259061 -12.30828476 147.92903519 C-12.28435963 161.77412092 -12.27728231 175.61908874 -12.28777695 189.46419144 C-12.29918423 204.54032908 -12.30111892 219.61641219 -12.28667885 234.69254917 C-12.28515301 236.29984501 -12.28363265 237.90714087 -12.28211784 239.51443672 C-12.28136003 240.30526288 -12.28060222 241.09608904 -12.27982144 241.91087963 C-12.27507749 247.48557439 -12.27693079 253.0602448 -12.28118324 258.63493919 C-12.28610802 265.42724853 -12.2801339 272.21944635 -12.26028895 279.01173014 C-12.25041223 282.47767591 -12.24531584 285.94345181 -12.25318146 289.40940666 C-12.25911362 293.1647543 -12.24666806 296.91959791 -12.22941208 300.67490005 C-12.23542212 301.77294529 -12.24143217 302.87099053 -12.24762434 304.00230986 C-12.33865491 311.1519555 -12.33865491 311.1519555 -8.84173203 317.13142776 C-4.26415797 320.18367015 -0.15066769 320.55601965 5.20682144 320.49219131 C6.0000736 320.49475459 6.79332575 320.49731786 7.61061585 320.49995881 C10.25935872 320.50488646 12.90752715 320.48842083 15.55621719 320.47200394 C17.45855572 320.47115744 19.36089523 320.47163324 21.26323318 320.47333145 C26.42189028 320.47419196 31.58033799 320.45655708 36.73894644 320.43560958 C42.13213762 320.41685213 47.52533363 320.41509307 52.9185524 320.41153336 C63.12882223 320.40221017 73.33899567 320.37759262 83.54922307 320.34748489 C95.1742786 320.31394945 106.79933874 320.29745701 118.42443061 320.28239858 C142.33577548 320.25104334 166.24698821 320.19602778 190.15826797 320.13142776 C190.15826797 338.94142776 190.15826797 357.75142776 190.15826797 377.13142776 C165.97076797 377.00642776 165.97076797 377.00642776 158.3567543 376.95125198 C156.35960478 376.94540936 154.36245288 376.94031326 152.36529922 376.93611526 C151.33288101 376.92588333 150.3004628 376.9156514 149.23675919 376.90510941 C147.74541458 376.90474686 147.74541458 376.90474686 146.2239418 376.90437698 C145.36456512 376.89993576 144.50518845 376.89549454 143.61977005 376.89091873 C140.7767303 377.16870714 138.70336288 377.837809 136.15826797 379.13142776 C133.47037215 383.1632715 133.60197238 386.39863598 134.15826797 391.13142776 C135.22636626 393.67185037 135.22636626 393.67185037 137.15826797 395.13142776 C140.09699291 396.07890807 142.78194528 396.25882201 145.85759354 396.26514053 C146.79825165 396.26940552 147.73890976 396.2736705 148.70807266 396.27806473 C149.73311905 396.27761154 150.75816544 396.27715836 151.81427383 396.27669144 C152.89922638 396.28005005 153.98417892 396.28340866 155.10200882 396.28686905 C158.69238806 396.29637655 162.28272067 396.29832199 165.87311172 396.29939651 C168.36648452 396.30260895 170.85985713 396.30597301 173.35322952 396.30948257 C178.58113279 396.31547314 183.80902421 396.31736532 189.03693008 396.3167305 C194.40772841 396.31619604 199.7784549 396.32324628 205.14923477 396.33723831 C211.6312548 396.3538857 218.11321022 396.36078691 224.59525108 396.36012077 C227.06681623 396.36130205 229.53838201 396.36573205 232.00993538 396.37345314 C235.46432186 396.38323503 238.9184775 396.3803821 242.37286758 396.37434769 C243.90740082 396.38277695 243.90740082 396.38277695 245.47293472 396.3913765 C246.41641266 396.38718201 247.35989059 396.38298752 248.33195877 396.37866592 C249.14808105 396.37921069 249.96420332 396.37975546 250.80505657 396.38031673 C253.58975775 396.08579096 255.6593204 395.39205504 258.15826797 394.13142776 C260.8461638 390.09958403 260.71456357 386.86421955 260.15826797 382.13142776 C259.09016969 379.59100516 259.09016969 379.59100516 257.15826797 378.13142776 C254.13640844 377.14647207 251.37107523 377.00974527 248.20611954 377.01790237 C247.21176895 377.01802322 246.21741837 377.01814407 245.19293594 377.01826859 C244.15540176 377.02338455 243.11786758 377.02850052 242.04889297 377.03377151 C241.08966934 377.03477859 240.13044571 377.03578568 239.14215469 377.03682327 C235.56418027 377.04204927 231.9862229 377.05601055 228.40826797 377.06892776 C220.40576797 377.08955276 212.40326797 377.11017776 204.15826797 377.13142776 C204.15826797 358.32142776 204.15826797 339.51142776 204.15826797 320.13142776 C209.97339005 320.14713821 215.78851212 320.16284866 221.77985001 320.17903519 C240.96642357 320.2286852 260.15299963 320.26201111 279.33962059 320.28686428 C290.97549207 320.30233709 302.61130272 320.32343459 314.24713516 320.35774612 C324.38821607 320.38763572 334.52925293 320.40699975 344.67037666 320.41369325 C350.04066475 320.41760623 355.4108268 320.42681103 360.78107452 320.44861794 C365.83547775 320.46897606 370.88970297 320.47526289 375.9441433 320.47075081 C377.79929891 320.47157631 379.65446045 320.47754593 381.50958061 320.48904419 C384.04317716 320.50397778 386.57610231 320.5003783 389.10971451 320.49219131 C389.84319048 320.50092984 390.57666645 320.50966836 391.33236897 320.51867169 C396.01082002 320.47783076 399.25319786 319.73525687 403.15826797 317.13142776 C407.43618037 312.5745335 406.5780902 306.54732721 406.54594803 300.67490005 C406.55133357 299.5028818 406.5567191 298.33086354 406.56226784 297.12332958 C406.57410036 293.87384987 406.57247538 290.62469862 406.56510103 287.37521589 C406.56037362 283.86933784 406.5728754 280.36351497 406.58311844 276.85765457 C406.60032016 269.99086023 406.60114363 263.12415735 406.59590553 256.25734705 C406.59186518 250.6763675 406.59330579 245.09541498 406.59865379 239.51443672 C406.59940222 238.72031783 406.60015064 237.92619894 406.60092174 237.10801585 C406.60245321 235.4947989 406.60399155 233.88158195 406.60553671 232.26836502 C406.61926669 217.13775916 406.61382054 202.007205 406.60235149 186.87660032 C406.59241838 173.03285376 406.60536023 159.18924084 406.62928569 145.3455149 C406.65366521 131.13201774 406.6632874 116.91858285 406.65663296 102.70506519 C406.65313821 94.72474115 406.65538965 86.7445199 406.67288399 78.76421165 C406.68759165 71.97079487 406.68826032 65.17755326 406.67081308 58.38413996 C406.66228875 54.91802107 406.66018799 51.45221532 406.67546463 47.98611259 C406.68859931 44.22875688 406.6771923 40.47225747 406.65947342 36.71493912 C406.66907843 35.6191246 406.67868343 34.52331009 406.6885795 33.39428908 C406.63190672 27.57012709 406.49292267 23.45705009 402.15826797 19.13142776 C394.79092947 14.94580184 386.5278248 15.7124049 378.29230118 15.75047684 C376.66592374 15.747018 375.03954865 15.74225192 373.41317844 15.7362951 C368.954414 15.72378651 364.49584251 15.72995486 360.03707743 15.73925376 C355.22446424 15.74604447 350.41188411 15.73556291 345.5992775 15.727314 C336.17548196 15.71397472 326.75175812 15.71685528 317.32795978 15.72555192 C309.66898304 15.73232728 302.01002639 15.73324582 294.35104752 15.72998047 C293.26094889 15.72952077 292.17085026 15.72906107 291.04771835 15.72858744 C288.83319846 15.72762826 286.61867858 15.72665562 284.40415871 15.72566967 C263.63899036 15.7171152 242.87386175 15.7269508 222.10869992 15.74307077 C204.29154385 15.75647399 186.47444642 15.75414592 168.65729141 15.74031448 C147.96638365 15.72425968 127.27551071 15.71793918 106.58459759 15.72715127 C104.37822788 15.72810692 102.17185816 15.72905003 99.96548843 15.72998047 C98.33712766 15.73067471 98.33712766 15.73067471 96.67587072 15.73138297 C89.02616529 15.73397316 81.37648195 15.72960124 73.72677994 15.72254181 C64.40425036 15.71412773 55.08179657 15.71640504 45.75927567 15.73238404 C41.00286072 15.74026796 36.2465721 15.74335624 31.49015808 15.73343658 C27.13530829 15.72449177 22.78070186 15.72941906 18.42587411 15.74536924 C16.85128659 15.74871794 15.27667847 15.74702096 13.70210421 15.73974188 C0.61415664 15.31471781 0.61415664 15.31471781 -10.31040668 21.59495831 Z " fill="#000000" transform="translate(58.841732025146484,49.86857223510742)"/>
<path d="M0 0 C1.23316794 -0.00583219 2.46633589 -0.01166439 3.73687255 -0.01767331 C5.09715568 -0.01404048 6.4574383 -0.01021613 7.81772041 -0.00622082 C9.26912893 -0.00924227 10.72053586 -0.01313172 12.17193997 -0.01781338 C16.15632041 -0.02810296 20.14061096 -0.02590912 24.12499881 -0.02163279 C28.42366493 -0.01916731 32.72230931 -0.02817753 37.02096748 -0.03567028 C45.44104079 -0.04842433 53.86108222 -0.05021009 62.28116356 -0.04787002 C69.12496824 -0.04608746 75.96876324 -0.04783517 82.81256676 -0.05209446 C83.78637119 -0.05268965 84.76017562 -0.05328484 85.76348928 -0.05389806 C87.74173823 -0.05510981 89.71998718 -0.05632394 91.69823612 -0.05754044 C110.25346375 -0.06841873 128.80867321 -0.06625214 147.36390187 -0.06015559 C164.33923728 -0.0549864 181.31451531 -0.06624143 198.28983937 -0.08525381 C215.71938466 -0.10462529 233.14890278 -0.11288941 250.57845891 -0.10913056 C260.36410226 -0.10721744 270.14969677 -0.10971687 279.93533134 -0.1238451 C288.26610676 -0.13575108 296.59680326 -0.13717259 304.92757975 -0.12505493 C309.17767307 -0.1191607 313.42762201 -0.11808183 317.67770576 -0.13005733 C321.57003376 -0.14089729 325.46209649 -0.13783537 329.35441197 -0.12379565 C330.76082582 -0.12114351 332.16726033 -0.12353153 333.57365392 -0.13153151 C349.89014857 -0.21788616 349.89014857 -0.21788616 355.29686248 4.60018176 C360.8197885 10.78838929 361.07869715 16.41593033 361.04744148 24.30634022 C361.05126703 25.32726704 361.05509258 26.34819386 361.05903405 27.40005785 C361.06936356 30.82545956 361.06537195 34.25069364 361.06140327 37.67610645 C361.06574975 40.1301333 361.07093269 42.58415879 361.07689095 45.03818226 C361.08890569 51.01462312 361.09143156 56.99099795 361.08909068 62.96744483 C361.08730751 67.82521244 361.08905714 72.68296641 361.09331512 77.54073238 C361.09391031 78.23216291 361.0945055 78.92359343 361.09511873 79.63597639 C361.09633048 81.04062434 361.09754461 82.44527228 361.0987611 83.84992022 C361.10963686 97.02191694 361.10747393 110.19388806 361.10137626 123.36588622 C361.09620662 135.41515254 361.1074637 147.46433803 361.12647448 159.51358836 C361.14584763 171.88741907 361.15410983 184.26121153 361.15035123 196.63505751 C361.14843844 203.58137901 361.15093427 210.52763171 361.16506577 217.47394085 C361.17821805 224.00498118 361.17572665 230.53588626 361.16265488 237.06693554 C361.16028344 239.46551791 361.16304396 241.8641116 361.171278 244.26268101 C361.1816989 247.53385267 361.17368184 250.80447566 361.16096687 254.07562733 C361.16834116 255.02747675 361.17571544 255.97932618 361.18331319 256.96001953 C361.13352895 263.03724361 360.20358335 267.25230929 356.28674507 272.11775684 C355.79174507 272.59599903 355.29674507 273.07424122 354.78674507 273.56697559 C354.29174507 274.05810841 353.79674507 274.54924122 353.28674507 275.05525684 C350.07283311 277.6247125 346.76921575 277.38138439 342.84054947 277.38590336 C341.5906042 277.3897445 340.34065893 277.39358565 339.05283654 277.39754319 C337.65807853 277.3967629 336.26332058 277.39588411 334.8685627 277.39491749 C333.39285767 277.39750038 331.91715335 277.40051333 330.44145 277.40392089 C326.37611419 277.41200294 322.31079602 277.41378113 318.24545312 277.41451836 C313.86499637 277.41636679 309.48454881 277.42391301 305.10409737 277.43065357 C295.52160153 277.44424543 285.93910988 277.45026279 276.35660601 277.45466423 C270.3762856 277.45742491 264.39596682 277.46166191 258.41564751 277.4661684 C241.86616619 277.47836161 225.31668618 277.4886612 208.76720047 277.4920435 C207.70765881 277.49226306 206.64811716 277.49248263 205.55646818 277.49270885 C204.4943584 277.49292712 203.43224861 277.4931454 202.33795369 277.49337029 C200.18563024 277.49381376 198.0333068 277.49426033 195.88098335 277.49470997 C194.81335132 277.4949314 193.74571929 277.49515283 192.64573477 277.49538097 C175.33839256 277.4993307 158.03109242 277.51678983 140.72376646 277.54006949 C122.96550079 277.56376344 105.20725623 277.57624443 87.44897449 277.57741141 C77.47390635 277.57832922 67.49889302 277.58410802 57.52383995 277.60223103 C49.03151551 277.61760555 40.53926282 277.62276813 32.04692711 277.61449292 C27.71216238 277.61057715 23.37754226 277.61156103 19.04279518 277.62555027 C15.07649525 277.6382337 11.11044942 277.63714096 7.14415012 277.62495956 C5.707415 277.62299288 4.27066222 277.62612552 2.83395196 277.63480392 C0.88420484 277.64583797 -1.06562557 277.63664898 -3.01537704 277.62641239 C-4.64136835 277.62730802 -4.64136835 277.62730802 -6.30020797 277.62822175 C-11.23052093 276.99565882 -14.35031257 274.49000643 -17.46325493 270.75447559 C-17.96341118 270.16666309 -18.46356743 269.57885059 -18.97887993 268.97322559 C-21.07339955 266.05680586 -21.33923631 263.47674721 -21.34747601 260.00333595 C-21.35193385 259.1314475 -21.35639169 258.25955906 -21.36098462 257.36124974 C-21.36080026 256.40270815 -21.3606159 255.44416656 -21.36042595 254.45657825 C-21.36410264 253.43877142 -21.36777933 252.42096458 -21.37156743 251.37231511 C-21.38262273 247.9454163 -21.38645124 244.51854779 -21.39025688 241.0916338 C-21.39652013 238.64114758 -21.4031668 236.19066232 -21.4101696 233.74017811 C-21.42941003 226.37462352 -21.4399998 219.00907699 -21.44889739 211.64350465 C-21.45328122 208.17428563 -21.4586478 204.70506814 -21.46388626 201.23585033 C-21.48089837 189.70214403 -21.4953922 178.16843868 -21.502635 166.63472176 C-21.50454487 163.64184347 -21.50646521 160.64896518 -21.50842094 157.65608692 C-21.50890468 156.91222822 -21.50938842 156.16836951 -21.50988682 155.40196963 C-21.51818583 143.353912 -21.5435206 131.3059537 -21.57600162 119.25793944 C-21.60908264 106.88642807 -21.62708472 94.51496716 -21.63027924 82.14341134 C-21.63244342 75.19807856 -21.64117844 68.25289062 -21.66674042 61.30760098 C-21.69073435 54.77328579 -21.69426654 48.23918429 -21.68397903 41.70481777 C-21.68348282 39.30706892 -21.68982825 36.90930736 -21.70353508 34.51159763 C-21.72120926 31.23651561 -21.71416899 27.96237363 -21.70100212 24.68729115 C-21.71197137 23.73990316 -21.72294061 22.79251518 -21.73424226 21.81641847 C-21.66399358 14.57183809 -20.03716654 9.0783872 -14.83825493 3.87947559 C-10.02800289 0.90170052 -5.60979323 0.00457565 0 0 Z M-4.21325493 17.25447559 C-4.21325493 97.44447559 -4.21325493 177.63447559 -4.21325493 260.25447559 C110.62674507 260.25447559 225.46674507 260.25447559 343.78674507 260.25447559 C343.78674507 180.06447559 343.78674507 99.87447559 343.78674507 17.25447559 C228.94674507 17.25447559 114.10674507 17.25447559 -4.21325493 17.25447559 Z " fill="#000000" transform="translate(86.21325492858887,80.7455244064331)"/>
</svg>
