<?xml version="1.0" encoding="UTF-8"?>
<svg version="1.1" xmlns="http://www.w3.org/2000/svg" width="512" height="512">
<path d="M0 0 C1.38841788 -0.00702278 2.77683543 -0.0141096 4.16525269 -0.02125549 C8.57241284 -0.0406353 12.97952028 -0.04568884 17.38671875 -0.046875 C18.13725651 -0.04731686 18.88779427 -0.04775871 19.66107559 -0.04821396 C41.93278507 -0.05509144 63.96483892 0.15213091 86.07421875 3.203125 C87.42004443 3.38213846 88.76591163 3.56084001 90.11181641 3.73925781 C127.81736594 8.80842035 173.02438031 15.93862042 203.07421875 41.203125 C204.2653125 42.13705078 204.2653125 42.13705078 205.48046875 43.08984375 C214.27562795 50.3165329 219.63300888 59.11654679 222.07421875 70.203125 C222.48039528 74.49652866 222.47990031 78.75899998 222.45516968 83.06921387 C222.45984965 84.33252014 222.46452962 85.59582641 222.46935141 86.89741468 C222.48180037 90.37868405 222.47571918 93.85970466 222.46639276 97.34097457 C222.45957737 101.10518636 222.47009578 104.86935674 222.47833252 108.63356018 C222.49164559 115.99765898 222.48880296 123.36166586 222.4800946 130.72576821 C222.47330889 136.71277056 222.47240516 142.69974722 222.47566605 148.68675232 C222.47612575 149.54009681 222.47658544 150.39344131 222.47705907 151.27264473 C222.47801829 153.00640508 222.47899093 154.74016543 222.47997685 156.47392577 C222.48852363 172.71679152 222.47870778 188.9596064 222.46257575 205.20246381 C222.44917321 219.12800264 222.45150151 233.05346643 222.46533203 246.97900391 C222.48140042 263.16526858 222.48769973 279.35148872 222.47849524 295.53776026 C222.47753963 297.26500606 222.47659652 298.99225187 222.47566605 300.71949768 C222.47520322 301.56925076 222.47474039 302.41900383 222.47426354 303.294507 C222.47167743 309.2716612 222.47603647 315.24878707 222.48310471 321.22593689 C222.4915339 328.5138968 222.48920979 335.80175982 222.47326247 343.08970869 C222.46539881 346.80541016 222.46225547 350.52095032 222.47220993 354.23665047 C222.48285233 358.27025172 222.47011227 362.30344854 222.45516968 366.33703613 C222.46186184 367.50338954 222.46855401 368.66974296 222.47544897 369.87144041 C222.39507889 381.0704351 219.83910568 389.30546584 213.07421875 398.203125 C212.63335937 398.80898438 212.1925 399.41484375 211.73828125 400.0390625 C186.459516 432.3315892 127.80835067 440.52423707 90.44921875 445.453125 C89.30960693 445.60418701 88.16999512 445.75524902 86.99584961 445.91088867 C64.42991493 448.68335088 41.85693346 449.58324579 19.13671875 449.515625 C17.85428284 449.51380219 16.57184692 449.51197937 15.25054932 449.51010132 C-5.61148454 449.46041362 -26.22099655 448.79967172 -46.92578125 446.203125 C-47.61406006 446.11826843 -48.30233887 446.03341187 -49.01147461 445.94598389 C-90.75762454 440.75842856 -145.08021787 432.94488614 -174.92578125 400.203125 C-183.00943132 389.69735184 -185.3801136 380.44018945 -185.3134613 367.34339905 C-185.31884684 366.06869655 -185.32423238 364.79399404 -185.32978112 363.48066419 C-185.34417819 359.9629392 -185.34000915 356.44544965 -185.3326143 352.92771208 C-185.32787066 349.12598539 -185.34040299 345.32430875 -185.35063171 341.52259827 C-185.36780138 334.08283601 -185.36866358 326.64315829 -185.36341881 319.20338137 C-185.35937264 313.15485517 -185.36082597 307.10635391 -185.36616707 301.0578289 C-185.36691549 300.19602283 -185.36766391 299.33421677 -185.36843501 298.44629536 C-185.36996653 296.69538247 -185.37150488 294.94446959 -185.37304998 293.19355672 C-185.38676826 276.78521698 -185.38134194 260.37692496 -185.36986477 243.96858632 C-185.35993196 228.96705879 -185.37287507 213.96565459 -185.39679896 198.96414609 C-185.421198 183.54817087 -185.43079592 168.13225308 -185.42414623 152.71625894 C-185.42065595 144.06629152 -185.42287354 135.41641894 -185.44039726 126.76646614 C-185.45512926 119.40343754 -185.45574162 112.0405706 -185.43832635 104.67754514 C-185.42982235 100.92332349 -185.42765187 97.1693905 -185.44297791 93.41518402 C-185.4594086 89.3398343 -185.44465906 85.26517905 -185.42698669 81.18983459 C-185.4365917 80.01112622 -185.44619671 78.83241784 -185.45609277 77.61799103 C-185.34294733 64.9228847 -180.35764948 54.75026344 -171.67578125 45.578125 C-130.09375506 6.41574257 -54.1805077 0.1860328 0 0 Z M-141.92578125 52.203125 C-142.96089844 52.77804688 -143.99601562 53.35296875 -145.0625 53.9453125 C-152.70335463 58.46936558 -160.26650478 64.38479887 -162.92578125 73.203125 C-162.84479998 78.93254979 -160.71249631 83.44270281 -156.796875 87.52734375 C-107.11982327 132.01889947 -15.28120081 130.93683728 47.52709961 127.68969727 C94.83986001 125.05375382 160.74504353 121.19229148 195.62109375 85.02734375 C198.62823999 81.2522435 199.54225505 78.18171388 199.37890625 73.28125 C198.30520793 65.95807685 192.66190703 61.39389121 187.07421875 57.203125 C156.72535148 34.81615192 113.88957214 29.01304265 77.38671875 24.953125 C76.26586884 24.82836288 76.26586884 24.82836288 75.12237549 24.70108032 C56.70160306 22.68042789 38.41155481 21.9632341 19.88671875 21.953125 C18.76816498 21.95245026 17.64961121 21.95177551 16.49716187 21.95108032 C-35.7780086 22.00081794 -95.56614361 26.02979815 -141.92578125 52.203125 Z M-162.92578125 111.203125 C-163.01876985 119.14869515 -163.08969124 127.09403509 -163.13302994 135.04001617 C-163.15383835 138.73032455 -163.18203044 142.42025858 -163.22753906 146.11035156 C-163.27124068 149.67654561 -163.29496901 153.24238131 -163.30529022 156.80882263 C-163.31619619 158.82062612 -163.34738316 160.83228696 -163.37896729 162.84387207 C-163.38102615 171.29865783 -162.57809759 176.8020074 -157.05859375 183.453125 C-112.99451018 221.8591745 -37.42342674 224.46281108 17.82421875 224.390625 C18.76130676 224.38968842 19.69839478 224.38875183 20.66387939 224.38778687 C72.64490112 224.27603169 154.54050685 222.7368369 194.07421875 183.203125 C198.48625866 177.19549806 200.20347474 172.72897532 200.18774414 165.24121094 C200.18763084 163.43979645 200.18763084 163.43979645 200.18751526 161.60198975 C200.18235397 160.31020813 200.17719269 159.01842651 200.171875 157.6875 C200.17000892 156.34800265 200.16858591 155.00850462 200.16758728 153.66900635 C200.1637771 150.15090028 200.15395966 146.63283579 200.1428833 143.11474609 C200.13263692 139.52181561 200.12808275 135.92887839 200.12304688 132.3359375 C200.112336 125.29164971 200.09527762 118.24739007 200.07421875 111.203125 C199.33104904 111.60987457 198.58787933 112.01662415 197.82218933 112.43569946 C196.84083511 112.97206024 195.8594809 113.50842102 194.84838867 114.06103516 C193.87834396 114.59153473 192.90829926 115.1220343 191.90885925 115.66860962 C139.84296026 143.85416709 77.57569886 149.450464 19.32421875 149.390625 C18.14625732 149.38968842 16.9682959 149.38875183 15.75463867 149.38778687 C-41.55443799 149.28906866 -110.45515314 145.03957656 -159.72265625 112.63671875 C-161.62739518 111.11222397 -161.62739518 111.11222397 -162.92578125 111.203125 Z M-162.92578125 207.203125 C-162.99542008 216.4698261 -163.04866281 225.73643654 -163.08121777 235.00334263 C-163.09684582 239.30676609 -163.11803153 243.61000996 -163.15209961 247.91333008 C-163.18479552 252.06953118 -163.20265577 256.22555998 -163.21041298 260.38187981 C-163.21593818 261.96425016 -163.22672752 263.54661153 -163.24297142 265.12890816 C-163.26488237 267.35250036 -163.26774258 269.57538876 -163.26635742 271.79907227 C-163.27301926 273.06260025 -163.27968109 274.32612823 -163.2865448 275.62794495 C-162.6217903 282.2156865 -159.76235438 287.63590097 -154.92578125 292.203125 C-97.92073367 338.73335726 2.38850208 335.64007471 72.14941406 328.8125 C112.79231216 324.67001378 164.80218704 318.45803849 195.5234375 288.41796875 C201.21316462 280.29183455 200.46627405 271.37222202 200.3671875 261.890625 C200.3615842 260.31022547 200.35731757 258.72982069 200.35432434 257.14941406 C200.34293324 253.0130953 200.31351637 248.87709838 200.2802124 244.74090576 C200.24938701 240.51090853 200.23579249 236.28085871 200.22070312 232.05078125 C200.18864038 223.76808236 200.13751457 215.48564385 200.07421875 207.203125 C198.31403863 208.16147104 196.55406949 209.12020457 194.79418945 210.07910156 C193.81408401 210.61295471 192.83397858 211.14680786 191.82417297 211.69683838 C189.72560523 212.84632825 187.63850621 214.01179654 185.5546875 215.1875 C154.67432784 231.74494076 118.46162588 237.90469911 84.07421875 242.203125 C83.40358398 242.28776001 82.73294922 242.37239502 82.04199219 242.45959473 C39.69157161 247.72236377 -4.59022664 247.51234444 -46.92578125 242.203125 C-47.61406006 242.11826843 -48.30233887 242.03341187 -49.01147461 241.94598389 C-86.51961874 237.2850613 -125.46284804 229.82932953 -158.19384766 210.06103516 C-159.52798203 209.25649399 -159.52798203 209.25649399 -160.8890686 208.43569946 C-161.56118378 208.02894989 -162.23329895 207.62220032 -162.92578125 207.203125 Z M-162.92578125 314.203125 C-163.01876985 322.14869515 -163.08969124 330.09403509 -163.13302994 338.04001617 C-163.15383835 341.73032455 -163.18203044 345.42025858 -163.22753906 349.11035156 C-163.27124068 352.67654561 -163.29496901 356.24238131 -163.30529022 359.80882263 C-163.31619619 361.82062612 -163.34738316 363.83228696 -163.37896729 365.84387207 C-163.38102615 374.29865783 -162.57809759 379.8020074 -157.05859375 386.453125 C-113.17008571 424.70614368 -37.81582024 427.46469905 17.26171875 427.390625 C18.6294191 427.38922012 18.6294191 427.38922012 20.02474976 427.38778687 C72.27667513 427.27250815 154.37773018 425.89961357 194.07421875 386.203125 C198.48625866 380.19549806 200.20347474 375.72897532 200.18774414 368.24121094 C200.18763084 366.43979645 200.18763084 366.43979645 200.18751526 364.60198975 C200.18235397 363.31020813 200.17719269 362.01842651 200.171875 360.6875 C200.17000892 359.34800265 200.16858591 358.00850462 200.16758728 356.66900635 C200.1637771 353.15090028 200.15395966 349.63283579 200.1428833 346.11474609 C200.13263692 342.52181561 200.12808275 338.92887839 200.12304688 335.3359375 C200.112336 328.29164971 200.09527762 321.24739007 200.07421875 314.203125 C199.33104904 314.60987457 198.58787933 315.01662415 197.82218933 315.43569946 C196.84083511 315.97206024 195.8594809 316.50842102 194.84838867 317.06103516 C193.87834396 317.59153473 192.90829926 318.1220343 191.90885925 318.66860962 C139.84296026 346.85416709 77.57569886 352.450464 19.32421875 352.390625 C18.14625732 352.38968842 16.9682959 352.38875183 15.75463867 352.38778687 C-41.55443799 352.28906866 -110.45515314 348.03957656 -159.72265625 315.63671875 C-161.62739518 314.11222397 -161.62739518 314.11222397 -162.92578125 314.203125 Z " fill="#000000" transform="translate(237.92578125,31.796875)"/>
<path d="M0 0 C3.57623788 1.9137306 5.69762236 4.09286708 7 8 C7.28914236 12.59955706 7.2777867 17.20488851 7.3125 21.8125 C7.34150391 23.08416016 7.37050781 24.35582031 7.40039062 25.66601562 C7.47958067 37.29476881 7.47958067 37.29476881 3 42 C-0.41457004 44.59036348 -3.83282171 44.43108741 -8 44 C-13.53846154 40.92307692 -13.53846154 40.92307692 -15 38 C-15.2588935 33.48739695 -15.27104714 28.97099443 -15.29516602 24.4519043 C-15.31235651 22.20624427 -15.35624 19.96206567 -15.40039062 17.71679688 C-15.41052001 16.28386497 -15.41903535 14.85092057 -15.42578125 13.41796875 C-15.44036377 12.11625732 -15.45494629 10.8145459 -15.4699707 9.47338867 C-14.92567643 5.45070055 -13.83894204 3.83960264 -11 1 C-7.51302098 -0.74348951 -3.80409937 -0.58082725 0 0 Z " fill="#000000" transform="translate(399,277)"/>
<path d="M0 0 C4.00064615 2.11354891 6.40081544 3.76044012 8 8 C8.43225036 12.63487656 8.32422015 17.28459924 8.3125 21.9375 C8.32861328 23.21302734 8.34472656 24.48855469 8.36132812 25.80273438 C8.36197266 27.03185547 8.36261719 28.26097656 8.36328125 29.52734375 C8.36626221 30.64874756 8.36924316 31.77015137 8.37231445 32.92553711 C7.8623476 37.13669292 6.16562629 39.69987837 3.375 42.8125 C-0.34822642 44.67411321 -3.92566692 44.6754242 -8 44 C-10.87029869 42.20606332 -12.49131638 41.01736724 -14 38 C-14.28208415 33.48772476 -14.31366669 28.97180603 -14.35009766 24.4519043 C-14.36664188 22.94751499 -14.39391251 21.4432038 -14.43212891 19.93920898 C-14.48706208 17.76504959 -14.5087937 15.59272978 -14.5234375 13.41796875 C-14.54325684 12.11625732 -14.56307617 10.8145459 -14.58349609 9.47338867 C-13.85560227 5.14044079 -12.36372826 3.72348577 -9 1 C-5.89046621 -0.5547669 -3.43733239 -0.28644437 0 0 Z " fill="#000000" transform="translate(398,378)"/>
<path d="M0 0 C3.11905047 2.57660691 4.7181368 4.1544104 6 8 C6.26225163 12.43324452 6.23147038 16.87233969 6.25 21.3125 C6.270625 22.53646484 6.29125 23.76042969 6.3125 25.02148438 C6.31765625 26.20677734 6.3228125 27.39207031 6.328125 28.61328125 C6.34214355 30.23423706 6.34214355 30.23423706 6.35644531 31.88793945 C5.94099669 35.51514737 4.88379057 37.88761395 3 41 C-1.04751057 43.91797274 -4.18225242 44.292213 -8.97265625 43.91015625 C-12.50233985 42.32553914 -14.44698584 40.47792942 -16 37 C-16.62446942 32.5137932 -16.67755532 28.09431667 -16.59692383 23.57739258 C-16.56252304 21.43893236 -16.57630393 19.30459217 -16.59570312 17.16601562 C-16.58880563 15.79685755 -16.57913409 14.42771004 -16.56640625 13.05859375 C-16.55552979 11.82423584 -16.54465332 10.58987793 -16.53344727 9.31811523 C-15.90798152 5.42763241 -14.73585921 3.78209552 -12 1 C-7.84354426 -1.47140612 -4.61354699 -1.23577152 0 0 Z " fill="#000000" transform="translate(400,176)"/>
<path d="M0 0 C2.1875 1.6875 2.1875 1.6875 4.1875 4.6875 C4.62077485 9.05857003 4.60157797 13.4390106 4.61303711 17.82885742 C4.62490509 19.98277526 4.67406218 22.13379868 4.72460938 24.28710938 C4.734078 25.66665276 4.74131094 27.04621366 4.74609375 28.42578125 C4.75954834 29.67399658 4.77300293 30.92221191 4.78686523 32.20825195 C3.99382571 36.81175756 2.46365488 38.4116521 -0.8125 41.6875 C-3.82475595 42.95526685 -6.57386066 43.03531162 -9.8125 42.6875 C-13.91836143 40.6718953 -16.18447869 38.94177917 -17.8125 34.6875 C-18.27006182 30.07420029 -18.18281483 25.44613662 -18.1875 20.8125 C-18.21199219 19.54535156 -18.23648437 18.27820313 -18.26171875 16.97265625 C-18.29817406 5.41632275 -18.29817406 5.41632275 -13.8125 0.6875 C-9.66937561 -2.45555988 -4.56126525 -2.12859045 0 0 Z " fill="#000000" transform="translate(363.8125,187.3125)"/>
<path d="M0 0 C4.57627119 3.15254237 4.57627119 3.15254237 6 6 C6.28155398 10.36978912 6.31364613 14.74321887 6.35009766 19.12084961 C6.36664004 20.57674158 6.39390836 22.0325529 6.43212891 23.48803711 C6.48708123 25.59271123 6.50879616 27.69548507 6.5234375 29.80078125 C6.54325684 31.06059814 6.56307617 32.32041504 6.58349609 33.6184082 C5.84768455 37.8827286 4.30413546 39.30733809 1 42 C-2.20613847 43.60306924 -5.52139997 43.48740461 -9 43 C-12.56262917 40.83144311 -14.47811351 38.84728208 -16 35 C-16.43049397 30.55271031 -16.32422777 26.09093475 -16.3125 21.625 C-16.32861328 20.40554688 -16.34472656 19.18609375 -16.36132812 17.9296875 C-16.36197266 16.74890625 -16.36261719 15.568125 -16.36328125 14.3515625 C-16.36626221 13.27729004 -16.36924316 12.20301758 -16.37231445 11.09619141 C-15.93640707 7.47115702 -14.91527315 5.09763992 -13 2 C-8.37100067 -0.70752791 -5.1516535 -1.67988701 0 0 Z " fill="#000000" transform="translate(362,288)"/>
<path d="M0 0 C2.87029869 1.79393668 4.49131638 2.98263276 6 6 C6.25840788 10.37012283 6.27103382 14.74405698 6.29516602 19.12084961 C6.31235449 21.29410239 6.35623807 23.46582346 6.40039062 25.63867188 C6.41052026 27.0260305 6.41903552 28.41340204 6.42578125 29.80078125 C6.44036377 31.06059814 6.45494629 32.32041504 6.4699707 33.6184082 C5.91954573 37.5788946 4.78798822 39.19319813 2 42 C-1.71710563 43.85855282 -5.95277281 43.57908439 -10 43 C-13.34625024 40.47323961 -14.67977847 38.96066458 -16 35 C-16.26196036 30.54588002 -16.23145119 26.0859893 -16.25 21.625 C-16.270625 20.39265625 -16.29125 19.1603125 -16.3125 17.890625 C-16.31765625 16.70210938 -16.3228125 15.51359375 -16.328125 14.2890625 C-16.3374707 13.20318848 -16.34681641 12.11731445 -16.35644531 10.99853516 C-15.86098338 6.83054647 -14.13575302 4.26680144 -11.375 1.1875 C-7.65177358 -0.67411321 -4.07433308 -0.6754242 0 0 Z " fill="#000000" transform="translate(362,389)"/>
</svg>
